<svg xmlns="http://www.w3.org/2000/svg" viewBox="0 0 24 24" role="img" aria-label="Gmail"><path fill="#EA4335" d="M2.5 5.5 12 12.6l9.5-7.1v12.7a1.8 1.8 0 0 1-1.8 1.8h-2.2V9.9L12 14 6.5 9.9V20H4.3a1.8 1.8 0 0 1-1.8-1.8V5.5Z"/><path fill="#4285F4" d="M2.5 5.5v12.7c0 1 .8 1.8 1.8 1.8h2.2V9.9L2.5 6.9V5.5Z"/><path fill="#34A853" d="M17.5 9.9V20h2.2c1 0 1.8-.8 1.8-1.8V5.5l-4 3v1.4Z"/><path fill="#FBBC04" d="M2.5 5.5 12 12.6l9.5-7.1V4.8c0-1.5-1.7-2.4-2.9-1.5L12 8.2 5.4 3.3C4.2 2.4 2.5 3.3 2.5 4.8v.7Z"/></svg>
