<svg xmlns="http://www.w3.org/2000/svg" viewBox="0 0 24 24"><rect width="24" height="24" rx="3" fill="#F7DF1E"/><path fill="#111" d="M12.5 18.2c.46.76 1.06 1.32 2.08 1.32.86 0 1.4-.43 1.4-1.02 0-.71-.56-.96-1.5-1.37l-.52-.22c-1.5-.64-2.49-1.44-2.49-3.12 0-1.55 1.18-2.73 3.03-2.73 1.32 0 2.26.46 2.94 1.66l-1.61 1.03c-.36-.64-.74-.89-1.33-.89-.6 0-.99.38-.99.89 0 .62.39.87 1.28 1.26l.52.22c1.76.75 2.75 1.52 2.75 3.24 0 1.86-1.46 2.88-3.42 2.88-1.92 0-3.16-.91-3.77-2.11l1.63-1.04Zm-7.3.18c.3.53.57.98 1.22.98.62 0 1.01-.24 1.01-1.18v-7h2.07v7.03c0 2.14-1.25 3.11-3.08 3.11-1.65 0-2.61-.85-3.1-1.87l1.88-1.09Z"/></svg>
